<svg width="512" height="512" viewBox="0 0 512 512" fill="none" xmlns="http://www.w3.org/2000/svg">
<rect width="512" height="512" fill="#F0F0F6"/>
<path d="M345.381 302.531C350.839 282.186 353.047 261.228 357.67 240.722C360.131 229.856 364.564 218.847 364.138 207.555C363.759 197.146 358.49 187.857 353.079 179.262C346.943 169.515 339.575 160.62 332.713 151.394C333.076 151.189 333.439 150.984 333.786 150.731C335.253 149.627 336.499 148.303 337.398 146.726C340.159 147.325 342.904 148.019 345.601 148.807C353.883 166.787 373.161 178.3 377.184 198.456C379.55 210.316 376.316 221.687 373.429 233.121C370.527 244.618 368.46 256.305 366.204 267.96C363.68 281.066 360.777 294.093 356.486 306.741C352.779 305.338 349.072 303.95 345.349 302.546L345.381 302.531ZM317.931 137.925C321.828 136.773 326.024 136.694 329.952 137.704C332.965 138.492 336.341 140.385 335.19 144.012C334.196 147.182 330.788 149.8 327.46 149.343C323.894 148.87 320.313 146.883 317.537 144.643C316.322 143.634 314.429 142.293 314.539 140.495C314.65 138.918 316.653 138.287 317.915 137.925L317.931 137.925ZM153.062 259.08C153.945 258.938 154.324 257.897 154.166 257.14C152.604 249.539 156.627 242.363 159.072 235.376C161.722 227.837 164.388 220.283 167.37 212.855C173.049 198.677 179.959 184.751 189.661 172.859C198.905 161.551 210.516 152.577 224.178 147.294C237.839 142.026 252.463 140.291 266.978 139.172C274.156 138.62 281.35 138.178 288.559 138.446C296.274 138.73 303.909 139.866 311.481 141.348C311.797 143.619 313.564 145.417 315.315 146.868C318.691 149.597 322.824 151.899 327.178 152.451C328.014 152.562 328.819 152.53 329.592 152.42C335.602 160.558 342.023 168.396 347.702 176.77C353.286 185.003 359.281 194.229 360.717 204.26C362.326 215.584 357.672 226.844 355.132 237.695C352.798 247.615 351.11 257.661 349.406 267.707C347.481 279.031 345.367 290.292 342.401 301.395C329.939 296.711 317.476 292.027 305.013 287.327C291.857 282.375 278.7 277.438 265.559 272.486C252.733 267.66 239.971 262.566 226.877 258.497C221.719 256.889 216.481 255.485 211.181 254.381C213.815 235.771 221.703 218.028 233.74 203.598C235.033 202.052 232.809 199.813 231.515 201.374C219.021 216.341 210.976 234.494 208.136 253.768C201.463 252.522 194.711 251.813 187.927 251.876C178.651 251.97 169.801 255.408 161.756 259.777C155.998 262.9 150.587 266.511 145.444 270.501C145.538 265.533 147.92 259.903 153.095 259.083L153.062 259.08ZM126.764 292.058C141.104 292.042 155.208 294.755 168.648 299.754C182.278 304.817 195.056 312.135 208.134 318.428C214.507 321.503 220.896 324.531 227.254 327.622C233.816 330.792 240.553 333.678 247.778 334.908C254.687 336.091 261.834 335.807 268.396 333.189C274.785 330.634 280.749 326.644 286.286 322.623C297.329 314.611 307.109 305.053 316.165 294.897C319.982 296.332 323.8 297.767 327.602 299.202C319.162 308.665 311.069 318.443 301.477 326.802C295.419 332.085 288.857 336.753 281.915 340.823C275.069 344.828 267.717 347.935 259.703 348.44C252.226 348.913 244.874 347.241 237.807 344.955C229.714 342.352 221.858 339.072 214.206 335.366C199.188 328.079 184.848 319.5 169.674 312.513C153.74 305.163 137.144 299.281 119.475 299.47C121.904 296.994 124.333 294.518 126.763 292.042L126.764 292.058ZM136.939 281.902C149.307 281.697 161.596 283.479 173.428 287.122C185.528 290.844 196.65 296.537 207.598 302.783C218.199 308.823 228.974 315.069 240.774 318.507C246.264 320.115 252.006 321.093 257.732 320.383C263.017 319.737 268.002 317.781 272.609 315.132C283.857 308.665 293.48 299.534 301.399 289.346C302.819 289.882 304.238 290.418 305.674 290.954C308.119 291.869 310.549 292.784 312.994 293.714C305.469 302.073 297.471 310.022 288.605 316.977C283.162 321.235 277.389 325.099 271.299 328.364C264.799 331.833 257.779 333.079 250.459 332.164C243.061 331.234 236.088 328.427 229.431 325.193C223.089 322.118 216.716 319.09 210.373 316.03C197.769 309.959 185.448 303.019 172.433 297.862C158.819 292.453 144.448 289.345 129.823 288.983C132.189 286.57 134.54 284.22 136.953 281.917L136.939 281.902ZM161.959 263.26C170.162 258.639 179.123 255.043 188.667 255.027C202.029 255.011 215.154 258.055 227.822 262.108C240.789 266.256 253.473 271.303 266.204 276.097C276.899 280.119 287.596 284.141 298.275 288.162C291.255 297.057 282.942 304.864 273.366 310.968C268.885 313.822 264.058 316.109 258.805 317.039C253.031 318.065 247.178 317.071 241.61 315.447C229.967 312.056 219.366 305.826 208.907 299.88C198.416 293.919 187.752 288.446 176.252 284.708C164.656 280.939 152.572 278.904 140.394 278.747C140.93 278.273 141.419 277.769 141.956 277.311C148.187 272.059 154.844 267.266 161.959 263.26ZM101.001 347.525C96.5684 351.437 91.836 356.531 85.7467 357.619C80.2725 358.581 74.625 355.537 75.0195 349.434C75.1458 347.352 75.9188 345.444 76.9915 343.662C83.5699 336.028 91.6627 329.625 101.081 325.872C110.23 322.229 120.121 321.314 129.871 322.166C120.279 330.651 110.609 339.041 101.001 347.525ZM319.918 355.001C301.934 366.782 281.19 378.169 258.928 375.646C236.306 373.091 216.475 358.991 197.704 347.194C178.6 335.192 158.534 323.269 135.878 319.721C124.189 317.891 111.915 318.286 100.778 322.591C98.2379 323.569 95.7768 324.736 93.4106 326.029C95.6981 323.695 97.9855 321.361 100.289 319.027C105.652 313.57 111 308.097 116.364 302.64C133.749 301.726 150.077 307.088 165.743 314.154C181.345 321.203 196.064 329.941 211.415 337.479C218.861 341.138 226.512 344.402 234.368 347.099C241.404 349.528 248.724 351.499 256.218 351.642C272.293 351.941 286.712 342.636 298.889 333.016C310.926 323.505 320.565 311.709 330.771 300.354C342.871 304.896 354.955 309.454 367.055 313.996C353.251 329.688 337.413 343.535 319.933 354.968L319.918 355.001ZM436.357 304.44C435.916 310.638 435.427 316.947 434.338 323.066C433.849 325.842 432.997 328.87 430.426 330.431C428.154 331.819 425.252 331.661 422.728 331.157C416.528 329.895 410.533 327.009 404.633 324.785C397.992 322.293 391.35 319.786 384.708 317.294C376.3 314.124 367.892 310.97 359.483 307.799C367.355 284.71 370.1 260.452 375.795 236.813C378.619 225.111 382.311 213.692 380.875 201.47C379.629 190.903 374.549 182.134 368.018 173.964C361.771 166.142 354.609 158.871 349.813 150.039C365.431 155.181 380.008 163.413 392.391 174.28C409.587 189.357 421.702 208.85 428.722 230.554C436.405 254.305 438.14 279.617 436.358 304.411L436.357 304.44Z" fill="#0088FF"/>
</svg>
