<svg width="1200" height="1200" viewBox="0 0 1200 1200" fill="none" xmlns="http://www.w3.org/2000/svg">
<path d="M846.908 727.116C861.986 670.933 868.086 613.057 880.856 556.429C887.654 526.421 899.899 496.021 898.724 464.839C897.678 436.094 883.123 410.442 868.175 386.706C851.223 359.79 830.87 335.226 811.914 309.749C812.916 309.183 813.919 308.616 814.877 307.92C818.93 304.871 822.373 301.213 824.857 296.857C832.483 298.512 840.066 300.429 847.517 302.606C870.396 352.256 923.649 384.049 934.762 439.711C941.299 472.462 932.365 503.864 924.39 535.439C916.372 567.189 910.662 599.461 904.431 631.646C897.458 667.838 889.439 703.813 877.587 738.742C867.346 734.866 857.105 731.033 846.82 727.157L846.908 727.116ZM771.08 272.553C781.844 269.374 793.436 269.156 804.288 271.943C812.611 274.121 821.937 279.347 818.756 289.364C816.011 298.119 806.598 305.348 797.402 304.085C787.553 302.778 777.661 297.291 769.991 291.106C766.636 288.319 761.406 284.617 761.711 279.652C762.016 275.297 767.551 273.555 771.037 272.553L771.08 272.553ZM315.64 607.125C318.081 606.733 319.127 603.859 318.691 601.768C314.377 580.776 325.489 560.959 332.243 541.666C339.565 520.848 346.929 499.986 355.166 479.474C370.854 440.32 389.942 401.864 416.743 369.025C442.28 337.798 474.354 313.017 512.093 298.427C549.832 283.88 590.23 279.089 630.326 275.998C650.154 274.473 670.027 273.254 689.943 273.994C711.253 274.778 732.345 277.914 753.263 282.008C754.135 288.279 759.015 293.244 763.853 297.251C773.179 304.786 784.597 311.145 796.624 312.669C798.934 312.974 801.156 312.886 803.292 312.582C819.895 335.054 837.631 356.7 853.32 379.826C868.747 402.561 885.307 428.039 889.273 455.738C893.718 487.009 880.863 518.106 873.847 548.069C867.397 575.463 862.734 603.206 858.027 630.949C852.711 662.22 846.871 693.317 838.678 723.978C804.251 711.042 769.823 698.108 735.396 685.129C699.052 671.453 662.707 657.822 626.406 644.146C590.976 630.819 555.722 616.752 519.551 605.515C505.301 601.073 490.833 597.197 476.19 594.148C483.468 542.756 505.258 493.76 538.508 453.911C542.081 449.643 535.936 443.458 532.363 447.77C497.848 489.101 475.624 539.23 467.779 592.456C449.345 589.016 430.693 587.056 411.954 587.23C386.33 587.491 361.882 596.986 339.657 609.049C323.75 617.673 308.803 627.647 294.596 638.664C294.857 624.945 301.438 609.397 315.731 607.133L315.64 607.125ZM242.995 698.194C282.608 698.151 321.568 705.642 358.695 719.447C396.348 733.427 431.647 753.636 467.773 771.013C485.378 779.506 503.028 787.868 520.591 796.404C538.719 805.158 557.328 813.128 577.286 816.525C596.373 819.792 616.115 819.008 634.244 811.778C651.893 804.723 668.366 793.704 683.663 782.598C714.168 760.473 741.186 734.08 766.2 706.032C776.746 709.996 787.292 713.959 797.795 717.922C774.481 744.054 752.124 771.056 725.628 794.138C708.893 808.729 690.765 821.62 671.589 832.857C652.676 843.92 632.369 852.499 610.23 853.893C589.574 855.199 569.266 850.583 549.743 844.268C527.387 837.082 505.685 828.023 484.548 817.788C443.061 797.666 403.448 773.974 361.529 754.68C317.515 734.384 271.669 718.14 222.858 718.662C229.569 711.824 236.28 704.986 242.991 698.149L242.995 698.194ZM271.103 670.147C305.268 669.58 339.217 674.502 371.901 684.563C405.326 694.841 436.049 710.563 466.292 727.81C495.577 744.491 525.342 761.738 557.938 771.232C573.104 775.674 588.966 778.374 604.785 776.415C619.384 774.629 633.155 769.228 645.88 761.911C676.952 744.054 703.535 718.838 725.411 690.703C729.333 692.184 733.255 693.665 737.221 695.146C743.976 697.672 750.687 700.198 757.442 702.767C736.654 725.85 714.56 747.801 690.068 767.007C675.033 778.766 659.084 789.436 642.262 798.452C624.307 808.033 604.914 811.474 584.694 808.948C564.256 806.378 544.994 798.626 526.604 789.697C509.085 781.205 491.48 772.843 473.96 764.394C439.14 747.626 405.105 728.462 369.153 714.221C331.545 699.283 291.844 690.703 251.444 689.701C257.981 683.038 264.475 676.548 271.142 670.19L271.103 670.147ZM340.219 618.667C362.879 605.907 387.632 595.976 413.998 595.933C450.909 595.889 487.167 604.295 522.16 615.488C557.982 626.941 593.02 640.878 628.187 654.118C657.733 665.224 687.28 676.33 716.783 687.436C697.39 711.999 674.424 733.558 647.972 750.412C635.595 758.295 622.26 764.61 607.748 767.18C591.798 770.011 575.631 767.267 560.247 762.781C528.086 753.418 498.801 736.214 469.908 719.795C440.928 703.331 411.469 688.219 379.7 677.897C347.67 667.488 314.288 661.87 280.646 661.434C282.127 660.127 283.478 658.734 284.96 657.471C302.174 642.968 320.565 629.73 340.219 618.667ZM171.827 851.367C159.581 862.168 146.508 876.236 129.687 879.241C114.565 881.898 98.964 873.492 100.054 856.638C100.403 850.889 102.538 845.619 105.501 840.697C123.674 819.618 146.029 801.935 172.046 791.571C197.321 781.51 224.645 778.984 251.577 781.336C225.081 804.767 198.367 827.937 171.827 851.367ZM776.57 872.012C726.89 904.546 669.585 935.99 608.09 929.022C545.597 921.967 490.816 883.031 438.962 850.453C386.188 817.309 330.756 784.384 268.172 774.584C235.88 769.532 201.976 770.621 171.209 782.511C164.193 785.211 157.395 788.434 150.858 792.005C157.177 785.56 163.496 779.114 169.858 772.668C184.675 757.598 199.448 742.486 214.265 727.417C262.289 724.891 307.394 739.699 350.672 759.211C393.772 778.679 434.43 802.807 476.837 823.624C497.407 833.728 518.542 842.743 540.244 850.191C559.681 856.898 579.901 862.342 600.601 862.734C645.009 863.562 684.84 837.865 718.478 811.298C751.729 785.036 778.355 752.459 806.55 721.102C839.975 733.645 873.357 746.231 906.782 758.775C868.65 802.109 824.898 840.348 776.611 871.919L776.57 872.012ZM1098.22 732.387C1097 749.504 1095.65 766.925 1092.65 783.823C1091.3 791.488 1088.94 799.85 1081.84 804.162C1075.56 807.994 1067.55 807.559 1060.57 806.165C1043.45 802.681 1026.89 794.711 1010.59 788.57C992.242 781.689 973.894 774.764 955.548 767.882C932.321 759.128 909.093 750.418 885.865 741.663C907.611 677.902 915.194 610.914 930.926 545.634C938.727 513.318 948.925 481.786 944.959 448.033C941.516 418.853 927.484 394.637 909.442 372.077C892.184 350.475 872.4 330.397 859.152 306.008C902.295 320.206 942.562 342.941 976.772 372.948C1024.27 414.585 1057.74 468.415 1077.13 528.349C1098.36 593.939 1103.15 663.837 1098.23 732.306L1098.22 732.387Z" fill="#F0F0F6"/>
</svg>
