<svg preserveAspectRatio="none" width="100%" height="100%" overflow="visible" style="display: block;" viewBox="0 0 362 239" fill="none" xmlns="http://www.w3.org/2000/svg">
<g id="logo_group">
<path id="logo" d="M270.381 165.531C275.839 145.186 278.047 124.228 282.67 103.722C285.131 92.8556 289.564 81.8471 289.138 70.5552C288.759 60.1462 283.49 50.8569 278.079 42.2616C271.943 32.5148 264.575 23.6199 257.713 14.3939C258.076 14.1889 258.439 13.9838 258.786 13.7315C260.253 12.6275 261.499 11.3027 262.398 9.72558C265.159 10.3249 267.904 11.0188 270.601 11.8074C278.883 29.7865 298.161 41.2997 302.184 61.4559C304.55 73.3159 301.316 84.6869 298.429 96.121C295.527 107.618 293.46 119.305 291.204 130.96C288.68 144.066 285.777 157.093 281.486 169.741C277.779 168.338 274.072 166.95 270.349 165.546L270.381 165.531ZM242.931 0.924554C246.828 -0.226765 251.024 -0.305618 254.952 0.703756C257.965 1.49231 261.341 3.38486 260.19 7.01227C259.196 10.1823 255.788 12.8004 252.46 12.3429C248.894 11.8698 245.313 9.88257 242.537 7.64292C241.322 6.63356 239.429 5.293 239.539 3.49525C239.65 1.91814 241.653 1.28725 242.915 0.924523L242.931 0.924554ZM78.0618 122.08C78.9453 121.938 79.3239 120.897 79.1661 120.14C77.6043 112.539 81.6271 105.363 84.0721 98.3762C86.7224 90.8374 89.3885 83.283 92.3701 75.8549C98.0491 61.6766 104.959 47.7506 114.661 35.8591C123.905 24.551 135.516 15.5774 149.178 10.294C162.839 5.02631 177.463 3.29142 191.978 2.17184C199.156 1.61984 206.35 1.17827 213.559 1.44635C221.274 1.73024 228.909 2.86576 236.481 4.34827C236.797 6.61933 238.564 8.41721 240.315 9.86826C243.691 12.5967 247.824 14.8993 252.178 15.4513C253.014 15.5617 253.819 15.5301 254.592 15.4197C260.602 23.5576 267.023 31.3959 272.702 39.7704C278.286 48.0031 284.281 57.2291 285.717 67.2597C287.326 78.5836 282.672 89.8444 280.132 100.695C277.798 110.615 276.11 120.661 274.406 130.707C272.481 142.031 270.367 153.292 267.401 164.395C254.939 159.711 242.476 155.027 230.013 150.327C216.857 145.375 203.7 140.438 190.559 135.486C177.733 130.66 164.971 125.566 151.877 121.497C146.719 119.889 141.481 118.485 136.181 117.381C138.815 98.7708 146.703 81.0282 158.74 66.598C160.033 65.0524 157.809 62.8129 156.515 64.3743C144.021 79.3411 135.976 97.4938 133.136 116.768C126.463 115.522 119.711 114.813 112.927 114.876C103.651 114.97 94.8013 118.408 86.7557 122.777C80.9976 125.9 75.5868 129.511 70.4437 133.501C70.5383 128.533 72.9205 122.903 78.0947 122.083L78.0618 122.08ZM51.7641 155.058C66.1041 155.042 80.2075 157.755 93.6477 162.754C107.278 167.817 120.056 175.135 133.134 181.428C139.507 184.503 145.896 187.531 152.254 190.622C158.816 193.792 165.553 196.678 172.778 197.908C179.687 199.091 186.834 198.807 193.396 196.189C199.785 193.634 205.749 189.644 211.286 185.623C222.329 177.611 232.109 168.053 241.165 157.897C244.982 159.332 248.8 160.767 252.602 162.202C244.162 171.665 236.069 181.443 226.477 189.802C220.419 195.085 213.857 199.753 206.915 203.823C200.069 207.828 192.717 210.935 184.703 211.44C177.226 211.913 169.874 210.241 162.807 207.955C154.714 205.352 146.858 202.072 139.206 198.366C124.188 191.079 109.848 182.5 94.6735 175.513C78.7403 168.163 62.1443 162.281 44.4745 162.47C46.904 159.994 49.3333 157.518 51.7629 155.042L51.7641 155.058ZM61.9392 144.902C74.3072 144.697 86.5965 146.479 98.4282 150.122C110.528 153.844 121.65 159.537 132.598 165.783C143.199 171.823 153.974 178.069 165.774 181.507C171.264 183.115 177.006 184.093 182.732 183.383C188.017 182.737 193.002 180.781 197.609 178.132C208.857 171.665 218.48 162.534 226.399 152.346C227.819 152.882 229.238 153.418 230.674 153.954C233.119 154.869 235.549 155.784 237.994 156.714C230.469 165.073 222.471 173.022 213.605 179.977C208.162 184.235 202.389 188.099 196.299 191.364C189.799 194.833 182.779 196.079 175.459 195.164C168.061 194.234 161.088 191.427 154.431 188.193C148.089 185.118 141.716 182.09 135.373 179.03C122.769 172.959 110.448 166.019 97.4335 160.862C83.8192 155.453 69.4476 152.345 54.8229 151.983C57.1892 149.57 59.5399 147.22 61.9533 144.917L61.9392 144.902ZM86.9591 126.26C95.1622 121.639 104.123 118.043 113.667 118.027C127.029 118.011 140.154 121.055 152.822 125.108C165.789 129.256 178.473 134.303 191.204 139.097C201.899 143.119 212.596 147.141 223.275 151.162C216.255 160.057 207.942 167.864 198.366 173.968C193.885 176.822 189.058 179.109 183.805 180.039C178.031 181.065 172.178 180.071 166.61 178.447C154.967 175.056 144.366 168.826 133.907 162.88C123.416 156.919 112.752 151.446 101.252 147.708C89.6565 143.939 77.5724 141.904 65.3937 141.747C65.9301 141.273 66.4192 140.769 66.9555 140.311C73.187 135.059 79.8444 130.266 86.9591 126.26ZM26.0015 210.525C21.5684 214.437 16.836 219.531 10.7467 220.619C5.27247 221.581 -0.375018 218.537 0.0195467 212.434C0.145751 210.352 0.918766 208.444 1.99148 206.662C8.56985 199.028 16.6627 192.625 26.0805 188.872C35.2302 185.229 45.1214 184.314 54.8709 185.166C45.2793 193.651 35.6087 202.041 26.0015 210.525ZM244.918 218.001C226.934 229.782 206.19 241.169 183.928 238.646C161.306 236.091 141.475 221.991 122.704 210.194C103.6 198.192 83.5336 186.269 60.8783 182.721C49.1887 180.891 36.9152 181.286 25.7777 185.591C23.2379 186.569 20.7768 187.736 18.4106 189.029C20.6981 186.695 22.9855 184.361 25.2887 182.027C30.6522 176.57 36.0001 171.097 41.3641 165.64C58.7487 164.726 75.0765 170.088 90.7432 177.154C106.345 184.203 121.064 192.941 136.415 200.479C143.861 204.138 151.512 207.402 159.368 210.099C166.404 212.528 173.724 214.499 181.218 214.642C197.293 214.941 211.712 205.636 223.889 196.016C235.926 186.505 245.565 174.709 255.771 163.354C267.871 167.896 279.955 172.454 292.055 176.996C278.251 192.688 262.413 206.535 244.933 217.968L244.918 218.001ZM361.357 167.44C360.916 173.638 360.427 179.947 359.338 186.066C358.849 188.842 357.997 191.87 355.426 193.431C353.154 194.819 350.252 194.661 347.728 194.157C341.528 192.895 335.533 190.009 329.633 187.785C322.992 185.293 316.35 182.786 309.708 180.294C301.3 177.124 292.892 173.97 284.483 170.799C292.355 147.71 295.1 123.452 300.795 99.8129C303.619 88.1108 307.311 76.6921 305.875 64.4695C304.629 53.9027 299.549 45.1338 293.018 36.9644C286.771 29.1418 279.609 21.8712 274.813 13.0393C290.431 18.1806 305.008 26.4133 317.391 37.2797C334.587 52.3572 346.702 71.8504 353.722 93.5537C361.405 117.305 363.14 142.617 361.358 167.411L361.357 167.44Z" fill="var(--fill-0, #F0F0F6)"/>
</g>
</svg>
