<svg width="891" height="201" viewBox="0 0 891 201" fill="none" xmlns="http://www.w3.org/2000/svg">
<path d="M226.313 138.558C230.882 121.528 232.73 103.985 236.599 86.8207C238.659 77.725 242.37 68.5103 242.013 59.0583C241.696 50.3455 237.286 42.5698 232.757 35.3751C227.62 27.2165 221.454 19.771 215.71 12.0484C216.014 11.8768 216.317 11.7052 216.608 11.494C217.836 10.5699 218.879 9.46097 219.632 8.14082C221.942 8.64248 224.24 9.22332 226.498 9.88338C233.43 24.9329 249.566 34.57 252.933 51.4417C254.914 61.3692 252.207 70.8874 249.79 80.4582C247.361 90.0822 245.631 99.8643 243.742 109.62C241.63 120.59 239.2 131.495 235.609 142.082C232.506 140.907 229.403 139.746 226.286 138.571L226.313 138.558ZM203.337 0.7739C206.599 -0.189814 210.111 -0.255818 213.399 0.58908C215.921 1.24914 218.747 2.83331 217.783 5.86963C216.951 8.52312 214.099 10.7146 211.313 10.3317C208.329 9.93561 205.331 8.27222 203.007 6.39752C201.991 5.55263 200.406 4.43052 200.499 2.9257C200.591 1.60558 202.268 1.07749 203.324 0.773874L203.337 0.7739ZM65.339 102.188C66.0785 102.069 66.3954 101.197 66.2634 100.564C64.9561 94.2007 68.3233 88.1939 70.3698 82.3459C72.5881 76.0356 74.8196 69.7121 77.3153 63.4944C82.0687 51.6265 87.8525 39.9697 95.973 30.0159C103.711 20.5505 113.429 13.0391 124.864 8.61659C136.299 4.20729 148.54 2.75509 160.689 1.81794C166.697 1.35589 172.718 0.986271 178.753 1.21067C185.21 1.4483 191.601 2.39879 197.939 3.63973C198.203 5.54072 199.682 7.04564 201.147 8.26025C203.973 10.5441 207.433 12.4715 211.077 12.9335C211.777 13.0259 212.45 12.9995 213.097 12.9071C218.128 19.7189 223.502 26.28 228.256 33.2899C232.93 40.1811 237.948 47.9037 239.15 56.2999C240.497 65.7785 236.601 75.2044 234.476 84.2866C232.521 92.5902 231.108 101 229.682 109.409C228.071 118.888 226.302 128.313 223.819 137.607C213.388 133.686 202.956 129.766 192.525 125.831C181.513 121.686 170.5 117.554 159.501 113.409C148.766 109.369 138.084 105.105 127.124 101.699C122.806 100.353 118.422 99.178 113.986 98.254C116.191 82.6763 122.793 67.8248 132.868 55.746C133.951 54.4522 132.089 52.5776 131.006 53.8846C120.548 66.4126 113.814 81.6074 111.437 97.741C105.852 96.6981 100.2 96.1041 94.5222 96.1569C86.7579 96.2361 79.3503 99.114 72.616 102.771C67.7963 105.385 63.2674 108.408 58.9625 111.747C59.0418 107.589 61.0356 102.876 65.3666 102.19L65.339 102.188ZM43.3274 129.792C55.3302 129.779 67.135 132.049 78.3847 136.234C89.7933 140.471 100.489 146.597 111.435 151.864C116.77 154.439 122.118 156.973 127.439 159.561C132.932 162.214 138.57 164.63 144.618 165.66C150.401 166.65 156.383 166.412 161.876 164.221C167.224 162.082 172.215 158.742 176.85 155.376C186.093 148.669 194.279 140.669 201.859 132.168C205.054 133.369 208.25 134.57 211.432 135.772C204.368 143.693 197.593 151.877 189.565 158.874C184.495 163.296 179.002 167.204 173.192 170.61C167.461 173.963 161.308 176.564 154.6 176.986C148.341 177.382 142.188 175.983 136.272 174.069C129.498 171.89 122.922 169.145 116.518 166.042C103.947 159.943 91.9449 152.762 79.2433 146.913C65.9069 140.762 52.0158 135.838 37.2259 135.996C39.2594 133.923 41.2928 131.85 43.3264 129.778L43.3274 129.792ZM51.8441 121.29C62.1964 121.118 72.4827 122.61 82.386 125.66C92.5138 128.775 101.823 133.541 110.987 138.769C119.86 143.825 128.879 149.053 138.755 151.93C143.35 153.277 148.157 154.095 152.95 153.501C157.373 152.96 161.546 151.323 165.402 149.105C174.816 143.693 182.871 136.049 189.5 127.521C190.688 127.97 191.876 128.419 193.078 128.868C195.125 129.633 197.158 130.399 199.205 131.178C192.906 138.175 186.212 144.828 178.791 150.65C174.235 154.214 169.403 157.449 164.305 160.181C158.865 163.086 152.989 164.129 146.862 163.363C140.669 162.584 134.833 160.234 129.261 157.528C123.953 154.953 118.618 152.419 113.31 149.858C102.76 144.775 92.4469 138.966 81.5534 134.65C70.158 130.122 58.1288 127.521 45.8877 127.217C47.8683 125.198 49.8359 123.231 51.856 121.303L51.8441 121.29ZM72.7862 105.686C79.6523 101.818 87.1526 98.808 95.1413 98.7948C106.325 98.7816 117.311 101.329 127.915 104.722C138.768 108.194 149.385 112.418 160.041 116.432C168.993 119.798 177.946 123.164 186.885 126.531C181.009 133.976 174.051 140.511 166.035 145.62C162.285 148.009 158.245 149.923 153.848 150.702C149.015 151.56 144.116 150.729 139.455 149.369C129.71 146.531 120.837 141.316 112.082 136.339C103.301 131.349 94.375 126.768 84.7492 123.639C75.0439 120.484 64.9293 118.781 54.7356 118.649C55.1846 118.253 55.5939 117.831 56.0429 117.448C61.2587 113.052 66.8311 109.039 72.7862 105.686ZM21.7637 176.221C18.0531 179.495 14.092 183.759 8.99517 184.67C4.41314 185.475 -0.313896 182.927 0.0163609 177.818C0.121996 176.076 0.769023 174.478 1.6669 172.986C7.17311 166.597 13.9469 161.237 21.8298 158.095C29.4883 155.046 37.7674 154.28 45.9278 154.993C37.8996 162.096 29.8051 169.119 21.7637 176.221ZM205.001 182.478C189.948 192.34 172.584 201.871 153.951 199.759C135.016 197.62 118.417 185.818 102.705 175.944C86.7148 165.897 69.919 155.917 50.9561 152.947C41.1718 151.415 30.8986 151.745 21.5764 155.349C19.4505 156.168 17.3905 157.145 15.41 158.227C17.3247 156.273 19.2392 154.32 21.167 152.366C25.6564 147.798 30.1327 143.217 34.6224 138.65C49.1737 137.884 62.8403 142.372 75.9536 148.287C89.0128 154.188 101.332 161.501 114.182 167.811C120.414 170.874 126.818 173.607 133.394 175.864C139.283 177.897 145.41 179.547 151.682 179.666C165.138 179.917 177.206 172.128 187.399 164.075C197.474 156.115 205.542 146.24 214.085 136.735C224.212 140.537 234.327 144.353 244.455 148.155C232.901 161.29 219.644 172.881 205.013 182.45L205.001 182.478ZM302.462 140.156C302.092 145.344 301.683 150.625 300.772 155.747C300.363 158.07 299.65 160.605 297.497 161.912C295.596 163.074 293.166 162.942 291.054 162.519C285.864 161.463 280.847 159.047 275.908 157.186C270.349 155.1 264.79 153.001 259.231 150.915C252.193 148.262 245.155 145.621 238.117 142.968C244.706 123.641 247.004 103.336 251.771 83.5486C254.134 73.7533 257.224 64.1952 256.022 53.9643C254.979 45.1193 250.728 37.7793 245.261 30.9411C240.032 24.3932 234.037 18.3073 230.023 10.9145C243.095 15.2181 255.296 22.1093 265.662 31.205C280.055 43.8257 290.195 60.1425 296.071 78.3093C302.502 98.1905 303.954 119.378 302.462 140.131L302.462 140.156Z" fill="#F0F0F6"/>
<path d="M890.261 132.796C890.261 133.564 889.237 134.076 888.469 134.332C887.701 134.332 886.933 134.076 885.909 134.076C883.093 134.076 880.021 134.588 876.949 134.588C874.389 134.588 872.085 134.076 870.805 132.284L861.845 122.556C857.749 118.46 854.421 113.852 850.837 109.244L847.253 112.316C847.253 114.62 846.997 117.18 846.997 119.74C846.997 125.884 848.021 131.772 855.957 131.772C856.469 131.772 857.749 132.028 857.749 132.796C857.749 133.82 856.469 134.332 855.701 134.332C853.653 134.332 851.605 133.564 849.557 133.564H844.181C840.341 133.564 836.757 134.332 833.941 134.332C832.917 134.332 832.149 134.076 831.893 133.308C831.893 130.748 838.549 132.54 838.549 122.812V58.5557C838.549 52.1557 836.245 49.8517 830.101 49.5957C829.589 49.5957 828.821 49.3397 828.821 48.8277C828.821 48.0597 829.589 47.5477 830.357 47.2917C834.709 46.2677 838.805 44.9877 842.901 43.1957C843.925 42.9397 845.205 41.6597 846.485 41.6597C847.253 41.6597 847.253 42.1717 847.253 42.9397V107.452L865.941 91.5797C866.453 90.8117 867.221 90.0437 867.733 89.5317C867.989 88.7637 868.245 88.2517 868.245 87.9957C868.245 85.1797 862.357 85.9477 862.357 83.8997C862.357 82.8757 863.381 82.6197 864.149 82.6197C866.453 82.6197 868.501 83.1317 870.805 83.1317C875.413 83.1317 879.765 82.8757 884.117 82.8757C884.629 82.8757 885.397 83.1317 885.397 83.6437C885.397 84.9237 883.861 85.1797 882.837 85.4357C877.205 86.7157 873.109 90.0437 868.757 93.6277L857.237 103.612C864.149 111.804 869.781 121.02 877.973 127.932C881.045 130.492 884.629 131.516 888.725 131.772C889.237 131.772 890.261 132.028 890.261 132.796Z" fill="#F0F0F6"/>
<path d="M826.892 124.092C826.892 130.748 810.764 135.612 805.132 135.612C791.308 135.612 781.836 123.58 781.836 110.012C781.836 95.4197 793.1 81.3397 808.46 81.3397C810.764 81.3397 822.796 82.1077 822.796 85.6917C822.796 87.9957 823.308 90.2997 823.308 92.6037C823.308 93.8837 823.052 95.6757 821.772 95.6757C821.004 95.6757 814.348 84.9237 804.108 84.9237C793.868 84.9237 790.284 96.6997 790.284 104.892C790.284 116.668 797.708 129.98 810.764 129.98C817.932 129.98 824.844 123.58 825.868 123.58C826.124 123.58 826.892 123.58 826.892 124.092Z" fill="#F0F0F6"/>
<path d="M773.3 123.836C773.3 128.7 759.22 135.612 751.796 135.612C736.948 135.612 727.732 122.3 727.732 108.476C727.732 95.4197 737.46 81.3397 751.54 81.3397C762.804 81.3397 772.02 91.8357 772.788 100.54C772.788 102.844 770.484 102.844 768.692 102.844C765.876 102.844 762.804 102.844 759.732 102.588H736.18C736.18 114.62 742.58 129.212 756.66 129.212C764.34 129.212 772.02 122.812 772.276 122.812C773.044 122.812 773.3 123.324 773.3 123.836ZM762.548 97.2117C762.548 90.0437 755.636 83.8997 748.724 83.8997C741.044 83.8997 737.204 92.6037 736.436 99.2597H758.964C760.756 99.2597 762.548 99.0037 762.548 97.2117Z" fill="#F0F0F6"/>
<path d="M722.952 133.308C722.952 134.332 722.184 134.844 721.16 134.844C717.832 134.588 714.504 134.332 711.176 134.332C707.592 134.332 703.752 134.844 700.168 134.844C699.656 134.844 698.888 134.332 698.632 133.82C698.632 131.772 704.52 132.284 704.52 124.348V103.612C704.52 94.6516 699.144 86.4596 689.672 86.4596C683.784 86.4596 675.848 90.5556 675.848 97.2116V121.276C675.848 128.444 677.128 131.004 684.296 132.284C685.32 132.284 686.344 132.54 686.6 133.564C686.6 134.588 685.832 134.844 685.32 134.844C681.736 134.844 678.408 134.332 674.824 134.332C670.728 134.332 666.376 134.844 662.024 134.844C661.256 134.844 660.488 134.844 660.488 133.82C660.488 132.028 667.4 131.516 667.4 124.604V57.7876C667.4 54.7156 667.144 50.3636 663.048 50.3636H660.232C659.464 50.3636 658.696 50.3636 658.696 49.5956C658.696 48.8276 659.464 48.3156 659.976 48.3156C663.048 47.5476 666.12 46.2676 668.936 44.9876C670.728 43.9636 673.032 42.1716 675.08 42.1716C675.848 42.4276 676.104 42.9396 676.104 43.4516C676.104 44.9876 675.848 46.7796 675.848 48.3156V91.3236C680.2 85.9476 686.344 81.3396 693.512 81.3396C705.8 81.3396 713.224 91.5796 713.224 103.1V123.068C713.224 129.724 715.016 131.004 721.416 132.028C722.184 132.284 722.952 132.54 722.952 133.308Z" fill="#F0F0F6"/>
<path d="M652.789 111.548C652.789 114.62 651.765 119.74 650.741 122.812C649.973 127.676 630.517 135.612 615.925 135.612C590.581 135.612 571.125 118.972 571.125 92.8597C571.125 66.7477 589.301 46.7797 615.925 46.7797C631.285 46.7797 643.317 54.7157 644.597 54.7157C645.877 54.7157 646.389 53.1797 647.669 53.1797C648.693 53.4357 648.693 54.9717 648.949 55.7397L650.741 70.5877C650.997 71.0997 650.997 71.3557 650.997 71.8677C650.997 72.6357 650.741 73.4037 649.973 73.4037C647.925 73.4037 639.989 50.3637 615.925 50.3637C593.909 50.3637 581.621 65.2117 581.621 86.9717C581.621 109.244 593.909 131.26 618.229 131.26C629.493 131.26 644.085 124.86 649.205 114.108C649.717 113.34 650.229 110.78 651.765 110.78C652.021 110.78 652.533 111.292 652.789 111.548Z" fill="#F0F0F6"/>
<path d="M562.963 105.916C562.963 121.02 552.211 135.612 536.339 135.612C531.731 135.612 527.123 133.564 522.771 131.772C522.771 136.124 522.515 140.22 522.515 143.548C522.515 151.228 523.795 155.836 532.499 155.836C533.267 155.836 534.035 156.092 534.291 156.86C534.291 157.884 533.523 158.14 532.499 158.14H527.123C524.563 158.14 521.747 158.14 518.931 157.884C516.115 157.884 513.299 158.396 510.227 158.396C508.947 158.396 507.667 158.14 507.667 157.372C507.667 154.812 514.067 157.628 514.067 143.804V96.9556C514.067 90.8116 512.787 87.9956 506.387 87.9956C505.875 87.9956 505.107 87.9956 505.107 87.2276C505.107 85.9476 519.187 81.3396 520.979 79.8036C521.235 79.5476 521.491 79.2916 521.747 79.2916C522.771 79.2916 523.027 80.0596 523.027 80.8276C523.027 84.1556 523.027 87.2276 522.771 90.5556C527.379 85.6916 533.523 81.3396 540.435 81.3396C554.515 81.3396 562.963 92.6036 562.963 105.916ZM555.795 111.292C555.795 99.7716 549.651 86.9716 536.595 86.9716C530.963 86.9716 522.771 90.2996 522.771 97.2116V118.46C522.771 127.164 530.451 132.028 538.643 132.028C550.931 132.028 555.795 122.3 555.795 111.292Z" fill="#F0F0F6"/>
<path d="M503.747 131.772C502.979 133.564 497.347 134.844 495.555 134.844C491.203 134.844 488.387 132.028 486.083 128.444C481.219 132.284 475.587 135.612 469.187 135.612C462.531 135.612 456.387 131.516 456.387 124.092C456.387 110.268 474.819 107.964 485.315 106.172V101.82C485.315 92.8597 484.547 84.9237 472.771 84.9237C468.163 84.9237 464.579 86.9717 464.579 91.8357C464.579 94.1397 465.859 96.4437 465.859 98.7477C465.859 99.2597 465.347 99.7717 464.579 99.7717C461.507 99.7717 456.643 98.4917 456.643 94.9077C456.643 89.7877 465.603 81.3397 475.843 81.3397C485.315 81.3397 493.763 85.4357 493.763 95.6757V120.252C493.763 124.348 494.275 131.004 499.907 131.004C500.931 131.004 501.955 130.492 502.723 130.492C503.491 130.492 503.747 131.26 503.747 131.772ZM485.571 117.436C485.571 114.364 485.315 111.292 485.315 108.732C477.635 109.5 464.835 112.316 464.835 122.044C464.835 127.932 468.675 131.516 474.307 131.516C484.035 131.516 485.571 124.604 485.571 117.436Z" fill="#F0F0F6"/>
<path d="M447.664 111.548C447.664 114.62 446.64 119.74 445.616 122.812C444.848 127.676 425.392 135.612 410.8 135.612C385.456 135.612 366 118.972 366 92.8597C366 66.7477 384.176 46.7797 410.8 46.7797C426.16 46.7797 438.192 54.7157 439.472 54.7157C440.752 54.7157 441.264 53.1797 442.544 53.1797C443.568 53.4357 443.568 54.9717 443.824 55.7397L445.616 70.5877C445.872 71.0997 445.872 71.3557 445.872 71.8677C445.872 72.6357 445.616 73.4037 444.848 73.4037C442.8 73.4037 434.864 50.3637 410.8 50.3637C388.784 50.3637 376.496 65.2117 376.496 86.9717C376.496 109.244 388.784 131.26 413.104 131.26C424.368 131.26 438.96 124.86 444.08 114.108C444.592 113.34 445.104 110.78 446.64 110.78C446.896 110.78 447.408 111.292 447.664 111.548Z" fill="#F0F0F6"/>
</svg>
